<svg width="1024" height="1024" viewBox="0 0 1024 1024" fill="none" xmlns="http://www.w3.org/2000/svg">
<g clip-path="url(#clip0_1092_27885)">
<path d="M509.665 0H513.567H567.313H1024V860.789V1024H505.611H0V860.589C7.82246 848.566 16.2339 833.242 23.6321 820.714L77.575 728.847C101.26 689.19 124.587 649.321 147.552 609.244C158.284 590.606 172.221 567.589 181.9 548.715C201.867 513.081 224.629 476.928 244.077 441.257L303.66 339.011L303.471 338.516C285.661 316.696 266.973 292.38 249.899 269.895L249.618 269.96L248.045 267.693C248.818 266.405 252.021 263.521 253.262 262.33C255.834 257.509 258.522 251.612 261.049 246.659C271.139 226.883 282.803 209.029 297.475 192.331C299.62 189.89 303.936 183.853 306.856 182.919L306.825 182.607C335.358 153.521 370.067 131.224 408.383 117.367C421.56 112.728 434.065 110.184 446.39 106.009C457.366 89.6558 466.642 72.6639 476.836 55.9006C488.158 37.2844 499.145 19.0885 509.665 0Z" fill="#FEFFFF"/>
<path d="M303.66 339.012L404.775 468.309L432.148 503.602C437.041 509.984 442.105 517.011 447.194 523.164C441.489 530.057 436.447 537.194 430.996 544.253L407.106 574.789C389.049 597.667 371.182 620.694 353.506 643.867L324.5 681.599C321.589 685.45 313.531 697.017 310.903 699.484C304.149 693.45 280.763 669.797 275.147 666.998L274.341 666.59L274.422 682.042C269.169 682.05 263.426 681.959 258.208 682.101C259.553 688.86 285.54 712.429 291.085 718.349C293.74 720.802 305.211 731.448 307.555 732.826C310.68 734.297 312.965 736.067 316.059 737.526C316.055 741.478 315.782 760.578 316.589 763.576C324.249 762.919 343.996 762.83 352.099 763.133C353.879 761.666 359.183 762.038 361.63 762.058L361.612 783.61C363.764 784.832 364.604 785.141 366.232 786.924C371.899 780.676 377.623 771.478 382.394 764.345C384.219 761.616 383.258 762.346 386.595 761.814L386.632 761.636C387.807 761.415 388.121 761.566 388.959 760.534C392.517 756.158 395.942 751.518 399.508 747.146C411.205 732.922 422.665 718.505 433.883 703.9C444.256 708.468 495.312 716.948 505.445 714.595L505.527 714.914C505.219 725.968 504.803 737.29 504.762 748.329C504.72 759.453 505.42 770.539 505.304 781.715C504.39 862.475 504.493 943.243 505.611 1024H0V860.59C7.82246 848.567 16.2339 833.243 23.6321 820.715L77.575 728.848C101.26 689.191 124.587 649.322 147.552 609.245C158.284 590.607 172.221 567.59 181.9 548.716C201.867 513.082 224.629 476.929 244.077 441.258L303.66 339.012Z" fill="url(#paint0_linear_1092_27885)"/>
<path d="M307.555 732.824C310.68 734.295 312.965 736.065 316.059 737.524C316.055 741.476 315.782 760.576 316.589 763.574C324.249 762.917 343.996 762.828 352.099 763.131C350.065 765.423 347.402 768.261 345.549 770.614L298.345 829.81C289.55 840.998 280.973 852.484 271.955 863.481L218.603 929.676L195.348 958.872C192.021 963.065 187.426 968.248 184.48 972.396L184.403 997.14C174.361 997.072 164.313 997.551 154.442 997.487C154.474 991.415 154.93 969.725 154.155 965.01C151.158 964.797 147.725 964.896 144.678 964.911C138.812 964.385 128.68 964.678 122.479 964.7C122.685 953.791 122.825 942.881 122.897 931.97L153.45 932.126C154.634 929.544 161.557 920.985 163.685 918.248L183.499 892.681L262.415 790.79C276.05 773.464 295.266 750.828 307.555 732.824Z" fill="#CD8D1D"/>
<path d="M316.589 763.574C317.398 766.747 317.184 793.049 317.194 797.939L289.616 797.907C289.849 809.271 289.946 820.638 289.909 832.004L262.76 831.992C262.989 842.98 263.112 853.969 263.13 864.959C254.321 864.924 245.335 864.793 236.542 864.893C236.866 876.258 237.016 887.626 236.99 898.995C227.98 898.986 218.97 898.931 209.96 898.831C210.022 909.77 210.227 921.058 210.131 931.969L182.614 931.95C181.966 922.71 182.275 907.844 182.064 898.102C190.888 898.4 200.507 898.293 209.395 898.372C208.772 887.798 209.761 874.176 208.616 864.183C216.958 864.876 227.376 864.8 235.81 864.715C235.174 854.48 235.445 841.829 235.394 831.416C244.244 831.916 253.187 831.813 262.054 831.792C261.81 820.579 261.909 808.868 261.864 797.618C270.952 797.785 280.382 797.676 289.498 797.695L289.077 763.604C298.186 763.676 307.502 763.855 316.589 763.574Z" fill="#0A4643"/>
<path d="M153.976 932.093C163.524 931.832 173.184 932.22 182.614 931.949C183.157 942.544 182.964 954.181 182.988 964.861L154.38 964.882C153.682 961.527 153.992 936.881 153.976 932.093Z" fill="#0A4643"/>
<path d="M386.595 761.812L387.976 762.228C388.637 764.618 388.227 767.502 388.065 770.052C390.834 770.638 411.435 792.723 414.534 796.49C403.843 800.661 399.252 809.75 392.005 818.628C384.925 808.086 367.502 791.402 358.211 782.818C354.849 779.711 349.069 772.803 345.549 770.615C347.402 768.262 350.065 765.424 352.099 763.132C353.879 761.665 359.183 762.037 361.63 762.057L361.612 783.609C363.764 784.831 364.604 785.139 366.232 786.922C371.899 780.674 377.623 771.477 382.394 764.344C384.219 761.615 383.258 762.345 386.595 761.812Z" fill="#FEFFFF"/>
<path d="M386.595 761.812L387.976 762.228C388.637 764.618 388.227 767.502 388.065 770.052C388.017 773.911 387.988 777.77 387.98 781.63C383.828 785.13 374.572 789.302 369.028 790.159C367.808 790.348 366.749 787.934 366.232 786.922C371.899 780.674 377.623 771.477 382.394 764.344C384.219 761.615 383.258 762.345 386.595 761.812Z" fill="#FDB005"/>
<path d="M144.678 964.911C147.725 964.896 151.158 964.797 154.155 965.01C154.93 969.725 154.474 991.415 154.442 997.487C143.609 997.756 132.774 997.935 121.938 998.023C121.945 987.203 121.791 975.899 122.212 965.124C129.068 965.141 138.004 965.393 144.678 964.911Z" fill="#FEFFFF"/>
<path d="M245.458 653.152C252.909 653.835 266.411 653.342 274.263 653.262C274.425 657.485 274.326 662.319 274.341 666.59L274.422 682.042C269.169 682.05 263.426 681.959 258.208 682.101L245.39 682.028L245.458 653.152Z" fill="#FDB005"/>
<path d="M405.233 803.821C414.651 803.799 424.068 803.859 433.485 804.001L433.461 833.007C424.114 832.983 414.767 833.008 405.421 833.081L405.233 803.821Z" fill="#FDB005"/>
<path d="M513.567 0H567.313H1024V860.789C1016.84 849.68 1008.49 834.955 1001.69 823.436C987.702 799.856 973.93 776.149 960.375 752.318L901.704 651.166C886.275 624.259 870.566 597.409 854.616 570.806C850.354 563.696 845.168 555.224 841.714 547.733L841.138 547.093C834.953 534.3 825.502 519.769 818.199 507.445L777.851 438.952L777.636 438.95C767.428 420.586 756.359 402.075 746.018 383.715C740.338 373.433 734.476 363.253 728.434 353.18C725.75 348.698 722.514 342.956 719.379 338.873L719.622 338.444C720.934 337.313 734.435 320.081 736.44 317.598L774.457 271.093L774.552 270.638C773.199 268.541 767.912 257.05 766.23 253.79C761.234 244.109 756.265 236.314 750.847 227.089C739.484 209.77 730.238 197.744 715.482 183.187L715.638 182.82C713.816 181.337 709.499 176.866 707.472 174.972C701.997 169.879 696.335 164.992 690.497 160.32C658.308 134.548 616.122 113.337 575.411 105.733C555.431 70.4125 533.804 35.3568 513.567 0Z" fill="#0A4643"/>
<path d="M837.74 178.43L847.272 180.445C846.452 181.736 843.14 186.558 842.877 187.392C847.759 194.028 857.317 215.89 860.818 223.939C887.495 285.28 896.6 349.043 887.179 415.261C881.612 454.385 870.964 488.985 854.282 524.832C851.576 530.647 845.59 542.844 841.714 547.735L841.138 547.095C834.953 534.302 825.502 519.771 818.199 507.447L777.851 438.954L777.636 438.952C767.428 420.588 756.359 402.077 746.018 383.717C740.338 373.435 734.476 363.255 728.434 353.182C725.75 348.7 722.514 342.958 719.379 338.875L719.622 338.446C720.934 337.315 734.435 320.083 736.44 317.6L774.457 271.095L774.552 270.64C780.355 263.879 787.696 255.713 792.667 248.405C795.582 245.121 799.153 240.281 802.018 236.731C810.301 226.511 818.501 216.224 826.616 205.87C830.196 201.373 838.316 190.973 842.494 187.305C841.921 184.967 839.096 180.684 837.74 178.43Z" fill="#028A79"/>
<path d="M774.457 271.094C781.568 287.426 784.739 300.943 787.714 318.21C793.218 350.153 792.273 375.459 786.159 407.265C784.861 414.03 783.215 420.723 781.228 427.318C780.419 430.092 778.243 436.633 777.851 438.953L777.636 438.951C767.428 420.587 756.359 402.076 746.018 383.716C740.338 373.434 734.476 363.254 728.434 353.181C725.75 348.699 722.514 342.957 719.379 338.874L719.622 338.445C720.934 337.314 734.435 320.082 736.44 317.599L774.457 271.094Z" fill="#6DAAA8"/>
<path d="M513.567 0H567.313L568.154 0.242058C575.145 2.22227 582.806 3.326 589.956 4.93347C603.12 7.89302 616.665 11.1482 629.462 15.4597C715.123 44.7415 788.388 102.091 837.382 178.216L837.74 178.428C839.096 180.682 841.921 184.965 842.494 187.303C838.316 190.971 830.196 201.371 826.616 205.868C818.501 216.222 810.301 226.509 802.018 236.729C799.153 240.279 795.582 245.119 792.667 248.403C787.696 255.711 780.355 263.877 774.552 270.638C773.199 268.541 767.912 257.05 766.23 253.79C761.234 244.109 756.265 236.314 750.847 227.089C739.484 209.77 730.238 197.744 715.482 183.187L715.638 182.82C713.816 181.337 709.499 176.866 707.472 174.972C701.997 169.879 696.335 164.992 690.497 160.32C658.308 134.548 616.122 113.337 575.411 105.733C555.431 70.4125 533.804 35.3568 513.567 0Z" fill="#028A79"/>
<path d="M715.638 182.819C727.158 169.049 738.939 153.265 750.447 139.13L767.927 117.741C771.087 113.946 774.311 110.604 777.173 106.559C783.61 127.76 785.695 145.834 790.349 167.177C798.292 169.537 806.92 171.484 815.006 173.428C821.98 175.105 830.335 177.308 837.382 178.215L837.74 178.427C839.096 180.681 841.921 184.964 842.494 187.302C838.316 190.97 830.196 201.37 826.616 205.867C818.501 216.221 810.301 226.508 802.018 236.728C799.153 240.278 795.582 245.118 792.667 248.402C787.696 255.71 780.355 263.876 774.552 270.637C773.199 268.54 767.912 257.049 766.23 253.789C761.234 244.108 756.265 236.313 750.847 227.088C739.484 209.769 730.238 197.743 715.482 183.186L715.638 182.819Z" fill="url(#paint1_linear_1092_27885)"/>
<path d="M758.429 220.566L758.808 220.854C766.502 226.627 773.683 231.547 780.715 238.495C782.904 240.657 792.225 243.158 793.565 245.367C793.288 246.578 793.075 247.224 792.667 248.403C787.696 255.711 780.355 263.877 774.552 270.638C773.199 268.541 767.912 257.05 766.23 253.79C761.234 244.109 756.265 236.314 750.847 227.089C753.606 225.199 756.149 223.011 758.429 220.566Z" fill="#ABC9CA"/>
<path d="M777.636 438.949L777.851 438.951L818.199 507.444C825.502 519.768 834.953 534.299 841.138 547.092L841.714 547.732C845.168 555.223 850.354 563.695 854.616 570.805C870.566 597.408 886.275 624.258 901.704 651.165L960.375 752.317C973.93 776.148 987.702 799.855 1001.69 823.435C1008.49 834.954 1016.84 849.679 1024 860.788V1024H505.611C504.493 943.241 504.39 862.473 505.304 781.713C505.42 770.537 504.72 759.451 504.762 748.327C504.803 737.288 505.219 725.966 505.527 714.912C507.362 714.481 513.558 714.773 515.711 714.8C541.111 715.122 565.058 710.32 589.213 703.438C601.093 718.476 612.844 733.615 624.465 748.854C626.273 751.233 635.094 762.191 636.075 764.02C643.559 764.13 651.045 764.146 658.53 764.068L658.539 780.237C658.733 781.421 658.937 782.02 659.294 783.173C661.267 782.104 669.716 771.45 671.587 769.166C667.748 765.994 665.298 763.692 661.897 760.091C661.441 750.281 661.963 735.763 661.988 725.612V713.961L670.362 714.018C681.112 714.024 692.348 714.194 703.06 713.908C705.315 710.164 711.133 704.445 714.363 701.125C712.337 699.255 710.448 697.128 708.716 694.976C692.754 675.142 677.629 654.621 661.816 634.654C654.04 624.835 646.046 615.046 638.593 605.011C680.78 579.417 712.081 552.465 739.923 511.339C757.715 485.057 765.676 467.997 777.636 438.949Z" fill="#F2B6CB"/>
<path d="M777.636 438.949L777.851 438.951L818.199 507.444C825.502 519.768 834.953 534.299 841.138 547.092C838.476 550.53 836.322 555.097 834.162 558.958C814.738 593.683 788.092 624.181 761.027 653.056C759.308 653.066 752.752 652.979 751.412 653.18C751.061 657.056 751.034 659.789 751.062 663.7C751.034 666.578 750.507 681.032 751.623 682.677L751.295 682.993C744.146 682.857 741.745 681.665 735.894 678.102C732.405 682.31 715.541 698.391 714.733 700.945L714.363 701.125C712.337 699.255 710.448 697.128 708.716 694.976C692.754 675.142 677.629 654.621 661.816 634.654C654.04 624.835 646.046 615.046 638.593 605.011C680.78 579.417 712.081 552.465 739.923 511.339C757.715 485.057 765.676 467.997 777.636 438.949Z" fill="#FFE2F4"/>
<path d="M735.894 678.101C737.631 675.999 748.925 664.86 751.062 663.699C751.034 666.577 750.507 681.031 751.623 682.676L751.295 682.992C744.146 682.856 741.745 681.664 735.894 678.101Z" fill="#F2B6CB"/>
<path d="M714.733 700.945L719.478 705.186C722.639 708.586 726.575 711.864 729.398 714.991C726.091 719.421 717.215 727.393 715.802 730.254L716.131 732.051C718.42 733.86 731.899 751.71 734.477 755.04L787.097 823.708L846.028 899.669C853.135 908.98 864.701 922.387 870.346 931.973C880.461 932.095 890.651 931.929 900.711 932.076C900.695 942.906 900.833 954.252 900.602 965.037C890.381 964.859 879.54 965.032 869.274 965.046C868.811 968.121 868.828 974.235 868.917 977.489C868.303 982.965 868.582 992.564 868.592 998.361C858.979 997.926 847.431 998.29 837.689 998.391C837.943 989.481 837.897 980.249 837.967 971.314C829.065 960.589 820.884 949.198 812.197 938.431L717.659 820.957C709.187 810.387 700.81 799.742 692.526 789.024C689.107 784.658 683.089 776.522 679.416 772.775C675.439 772.114 674.756 771.699 671.587 769.166C667.748 765.994 665.298 763.692 661.897 760.091C661.441 750.281 661.963 735.763 661.988 725.612V713.961L670.362 714.018C681.112 714.024 692.348 714.194 703.06 713.908C705.315 710.164 711.133 704.445 714.363 701.125L714.733 700.945Z" fill="#CD8D1D"/>
<path d="M703.06 713.91L709.414 714.028L709.55 727.3C709.489 738.147 709.697 749.309 709.422 760.111C699.503 760.117 687.258 760.461 677.522 760.086C674.393 759.892 664.983 759.715 661.897 760.093C661.441 750.283 661.963 735.765 661.988 725.614V713.963L670.362 714.02C681.112 714.026 692.348 714.196 703.06 713.91Z" fill="#FDBC06"/>
<path d="M840.158 932.398C850.004 932.369 859.849 932.231 869.692 931.984C869.671 938.933 870.054 959.496 869.274 965.048C859.57 964.928 849.866 964.901 840.161 964.968C840.077 954.206 840.355 943.064 840.158 932.398Z" fill="#0A4643"/>
<path d="M661.897 760.094C664.983 759.716 674.393 759.893 677.522 760.087C674.794 760.256 672.751 760.387 669.989 760.278C673.964 764.116 677.018 767.715 679.416 772.778C675.439 772.117 674.756 771.702 671.587 769.169C667.748 765.997 665.298 763.695 661.897 760.094Z" fill="#FDB005"/>
<path d="M707.796 763.798C717.188 763.882 726.581 763.852 735.973 763.707L735.868 798.148C744.222 797.967 752.578 797.915 760.933 797.992C760.949 809.309 760.878 820.625 760.72 831.941C769.458 831.866 778.349 831.88 787.071 831.707L786.965 865.038L813.517 864.825L813.478 898.373L840.522 897.951C839.783 908.591 840.07 921.408 840.013 932.25C831.155 932.159 822.295 932.186 813.437 932.332L813.448 898.965L786.473 899.096C786.485 888.102 786.322 876.393 786.581 865.456L760.36 865.442C760.354 854.301 760.406 843.159 760.517 832.019L734.991 832.016C734.992 825.065 734.53 804.674 735.339 798.617C733.073 797.373 712.084 798.124 707.858 798.193L707.796 763.798Z" fill="#0A4643"/>
<path d="M709.837 727.341L710.205 725.824C712.974 725.627 714.128 728.061 714.499 730.474L713.839 732.352C712.557 733.098 710.905 736.235 710.024 737.672C709.992 734.228 709.93 730.784 709.837 727.341Z" fill="#18762C"/>
<path d="M869.274 965.046C879.54 965.032 890.381 964.859 900.602 965.037C901.14 974.319 900.584 989.183 900.477 998.888C890.001 998.959 879.525 998.877 869.051 998.642C869.063 992.953 869.382 982.831 868.917 977.489C868.828 974.235 868.811 968.121 869.274 965.046Z" fill="#FEFFFF"/>
<path d="M629.754 772.734C631.491 774.715 633.299 776.805 635.507 778.209C635.461 781.06 635.475 783.436 635.602 786.288L638.251 786.523C640.962 789.294 649.703 796.686 652.815 798.874C646.7 804.852 640.793 811.552 634.73 817.724C625.593 807.608 620.795 802.7 611.024 793.289C615.373 787.373 624.397 778.355 629.754 772.734Z" fill="#FEFFFF"/>
<path d="M735.894 678.102C741.745 681.665 744.146 682.857 751.295 682.993C751.658 693.6 751.471 704.239 751.583 714.85C742.644 713.219 736.073 711.222 727.554 708.168C725.574 707.459 721.184 705.681 719.478 705.186L714.733 700.945C715.541 698.391 732.405 682.31 735.894 678.102Z" fill="#FEFFFF"/>
<path d="M751.412 653.18C757.504 653.945 771.677 653.483 778.108 653.405C778.296 663.224 778.35 673.045 778.269 682.866C769.986 682.42 760.017 682.616 751.623 682.677C750.507 681.032 751.034 666.578 751.062 663.7C751.034 659.789 751.061 657.056 751.412 653.18Z" fill="#FDBC06"/>
<path d="M636.075 764.02C643.559 764.13 651.045 764.146 658.53 764.068L658.539 780.237C658.577 782.16 658.852 784.492 658.078 786.168C654.804 786.772 642.414 786.494 638.251 786.523L635.602 786.288C636.463 779.496 635.478 771.179 636.075 764.02Z" fill="#FDB005"/>
<path d="M591.445 803.961L619.07 804.045L619.064 833.19C609.74 833.008 600.413 832.968 591.087 833.07C590.949 824.53 590.885 812.302 591.445 803.961Z" fill="#FDB005"/>
<path d="M509.665 0H513.567C533.804 35.3568 555.431 70.4125 575.411 105.733C616.122 113.337 658.308 134.548 690.497 160.32C696.335 164.992 701.997 169.879 707.472 174.972C709.499 176.866 713.816 181.337 715.638 182.82L715.482 183.187C697.533 205.725 679.46 229.122 661.386 251.377L661.495 251.735C657.114 256.587 653 262.385 648.853 267.556C639.73 278.751 630.721 290.038 621.828 301.416L554.777 386.284C540.581 404.414 526.627 423.507 511.584 440.936C480.564 398.262 444.217 357.444 411.98 315.445C395.438 293.894 378.562 271.519 361.254 250.662L360.955 250.233C359.139 248.154 357.193 245.616 355.527 243.398C339.993 222.72 322.926 203.102 306.856 182.919L306.825 182.607C335.358 153.521 370.067 131.224 408.383 117.367C421.56 112.728 434.065 110.184 446.39 106.009C457.366 89.6558 466.642 72.6639 476.836 55.9006C488.158 37.2844 499.145 19.0885 509.665 0Z" fill="url(#paint2_linear_1092_27885)"/>
<path d="M575.411 105.734C616.122 113.338 658.308 134.549 690.497 160.321C696.335 164.993 701.997 169.88 707.472 174.973C709.499 176.867 713.816 181.338 715.638 182.821L715.482 183.188C697.533 205.726 679.46 229.123 661.386 251.378C655.047 239.45 647.507 227.817 640.536 216.224L600.201 148.358C592.346 135.112 582.352 119.187 575.411 105.734Z" fill="#6DAAA8"/>
<path d="M306.825 182.606C335.358 153.52 370.067 131.223 408.383 117.366C421.56 112.727 434.065 110.183 446.39 106.008C442.502 114.146 434.704 126.378 429.932 134.617C414.972 160.447 398.975 185.778 383.937 211.624C376.428 224.527 368.215 237.046 360.955 250.232C359.139 248.153 357.193 245.615 355.527 243.397C339.993 222.719 322.926 203.101 306.856 182.918L306.825 182.606Z" fill="#6DAAA8"/>
<path d="M510.549 197.746C512.474 198.025 513.716 198.613 514.179 200.631C514.807 203.502 515.308 208.101 515.406 210.92C516.475 241.729 530.666 251.736 560.035 252.512C562.824 252.585 568.209 253.364 570.881 254.525C571.628 254.85 571.54 255.254 571.809 256.007L571.304 257.049C570.22 257.872 569.075 258.217 567.741 258.359C557.004 259.503 546.036 259.501 535.654 262.817C519.505 267.977 516.487 286.094 515.284 300.693C514.965 304.565 514.789 310.429 513.141 313.825C511.817 314.042 511.849 314.152 510.674 313.567C508.516 309.654 509.144 300.412 508.514 295.795C506.82 284.551 504.303 274.613 496.415 266.386C489.335 259.002 456.198 260.117 452.097 256.734L452.072 254.927C452.301 254.564 452.53 254.202 452.759 253.839C459.65 252.373 472.268 251.964 478.773 250.922C482.36 250.327 485.879 249.378 489.28 248.089C503.933 242.378 506.89 228.568 508.511 214.281C509.091 209.161 508.504 202.463 510.549 197.746Z" fill="#FEFFFF"/>
<path d="M574.514 522.91C578.316 517.227 584.402 510.146 588.788 504.545C599.402 490.89 610.156 477.345 621.049 463.911L672.486 398.828C682.646 386.016 692.897 373.375 703.31 360.764C708.873 354.027 714.149 345.971 719.379 338.871C722.514 342.954 725.75 348.696 728.434 353.178C734.476 363.251 740.338 373.431 746.018 383.713C756.359 402.073 767.428 420.584 777.636 438.948C765.676 467.996 757.715 485.056 739.923 511.338C712.081 552.464 680.78 579.416 638.593 605.01C632.04 597.336 626.191 588.281 619.763 580.423C604.417 561.663 590.171 541.329 574.514 522.91Z" fill="#FFE2F4"/>
<path d="M715.482 183.188C730.238 197.745 739.484 209.771 750.847 227.09C756.265 236.315 761.234 244.109 766.23 253.79C767.912 257.05 773.199 268.542 774.552 270.639L774.457 271.093L736.44 317.598C734.435 320.081 720.934 337.314 719.622 338.445C713.307 333.501 707.2 320.657 702.618 313.661C700.248 310.043 698.186 307.176 695.546 303.71C686.481 314.505 676.914 326.803 668.095 337.903C659.522 348.691 652.366 359.382 643.257 370.041C639.66 366.56 634.923 361.806 631.796 358.002C646.229 340.639 660.025 322.994 674.198 305.442C678.284 300.381 682.156 296.155 685.799 290.627C679.896 282.628 675.541 275.543 670.589 267.001C668.723 263.783 663.493 254.153 661.495 251.736L661.386 251.378C679.46 229.123 697.533 205.726 715.482 183.188Z" fill="url(#paint3_linear_1092_27885)"/>
<path d="M253.262 262.329C255.834 257.508 258.522 251.611 261.049 246.658C271.139 226.882 282.803 209.028 297.475 192.33C299.62 189.889 303.936 183.852 306.856 182.918C322.926 203.101 339.993 222.719 355.527 243.397C357.193 245.615 359.139 248.153 360.955 250.232L361.254 250.661C358.964 252.567 355.667 259.364 353.763 262.136C348.737 269.451 342.045 282.165 336.619 288.75C334.752 292.165 330.204 298.628 327.235 300.885L327.184 301.188C319.987 312.586 311.075 327.699 303.471 338.515C285.661 316.695 266.973 292.379 249.899 269.894L249.618 269.959L248.045 267.692C248.818 266.404 252.021 263.52 253.262 262.329Z" fill="url(#paint4_linear_1092_27885)"/>
<path d="M248.045 267.691C248.818 266.403 252.021 263.519 253.262 262.328C252.308 264.96 251.544 267.682 249.899 269.893L249.618 269.958L248.045 267.691Z" fill="#ABC9CA"/>
<path d="M531.912 629.715C541.259 640.052 550.208 653.449 558.689 664.546C568.647 677.578 579.359 690.351 589.213 703.441C565.058 710.323 541.111 715.125 515.711 714.803C513.558 714.776 507.362 714.484 505.527 714.915L505.445 714.596C506.135 704.682 505.43 690.416 505.368 680.196C505.268 663.969 505.612 648.192 505.823 631.992C513.771 631.411 524.257 631.255 531.912 629.715Z" fill="#FFE2F4"/>
<path d="M433.883 703.901C436.586 698.959 443.035 692.18 446.583 687.54C467.975 659.559 491.029 632.38 511.885 604.055C515.864 608.27 528.658 624.763 531.912 629.715C524.257 631.255 513.771 631.411 505.823 631.992C505.612 648.192 505.268 663.969 505.368 680.196C505.43 690.416 506.135 704.682 505.445 714.596C495.312 716.949 444.256 708.469 433.883 703.901Z" fill="#FFE2F4"/>
<path d="M307.622 698.605C313.358 703.911 319.323 709.034 324.866 714.522C333.544 714.518 342.221 714.56 350.899 714.649C355.041 715.12 359.586 714.985 363.785 714.97L363.965 722.115C363.136 730.776 363.604 752.435 363.884 761.858L386.632 761.633L386.595 761.811C383.258 762.343 384.219 761.613 382.394 764.342C377.623 771.475 371.899 780.673 366.232 786.921C364.604 785.138 363.764 784.829 361.612 783.607L361.63 762.055C359.183 762.035 353.879 761.663 352.099 763.13C343.996 762.827 324.249 762.916 316.589 763.573C315.782 760.575 316.055 741.475 316.059 737.523C312.965 736.064 310.68 734.294 307.555 732.823C305.211 731.445 293.74 720.799 291.085 718.346C296.26 712.468 302.396 703.779 307.622 698.605Z" fill="#FDBC06"/>
<path d="M547.543 556.562C551.301 560.766 555.971 567.048 559.569 571.607L585.788 605.089C607.729 632.329 629.319 659.85 650.55 687.647C653.73 691.769 669.114 711.158 670.362 714.021L661.988 713.964V725.615C657.717 722.854 627.612 683.13 621.709 675.621L555.934 591.299C550.177 583.89 543.799 576.475 538.207 569.16C540.86 564.836 544.296 560.448 547.543 556.562Z" fill="#F2B6CB"/>
<path d="M350.899 714.652C358.386 703.67 369.21 691.234 377.508 680.535C402.949 647.731 429.464 615.416 454.789 582.529C460.192 575.513 470.153 563.642 474.78 556.77C478.211 561.051 481.719 565.96 485.153 570.07C478.484 576.947 470.987 587.61 464.64 595.316C444.016 620.526 423.742 646.019 403.821 671.789L374.185 709.161C371.582 712.476 365.954 718.837 363.965 722.117L363.785 714.973C359.586 714.988 355.041 715.123 350.899 714.652Z" fill="#F2B6CB"/>
<path d="M336.619 288.75C341.299 293.497 346.005 299.966 350.239 305.226C358.839 315.912 367.096 327.002 375.707 337.674L422.688 396.512C427.962 403.216 436.545 412.722 440.954 419.488L441.384 420.134L441.639 420.525C438.867 425.345 435.465 428.984 432.068 433.389C430.229 430.432 426.063 425.976 423.646 423.182C419.475 418.453 415.482 413.57 411.675 408.543C383.967 372.28 354.676 337.721 327.184 301.188L327.235 300.885C330.204 298.628 334.752 292.165 336.619 288.75Z" fill="#FFE2F4"/>
<path d="M631.796 358C634.923 361.804 639.66 366.559 643.257 370.04C640.819 372.384 638.545 375.471 636.486 378.157C608.161 415.094 578.405 450.893 550.006 487.78C546.712 484.29 542.511 478.896 539.368 475.088C542.79 469.819 547.136 464.601 550.99 459.608C577.357 425.452 605.842 392.467 631.796 358Z" fill="#F2B6CB"/>
<path d="M432.068 433.391C435.465 428.986 438.867 425.347 441.639 420.527C454.178 437.187 467.389 453.36 479.7 470.208C481.685 472.925 483.93 475.888 486.054 478.503C482.881 482.406 479.571 486.196 476.13 489.865C471.955 484.815 433.46 437.161 432.068 433.391Z" fill="#F2B6CB"/>
<path d="M509.57 507.988C512.86 510.828 521.593 521.534 524.839 525.363C520.907 529.314 517.755 533.502 514.417 537.923L513.768 537.942C510.974 536.547 502.41 524.606 499.111 521.052C501.822 517.171 506.458 511.806 509.57 507.988Z" fill="#F2B6CB"/>
<path d="M0 0H450.584H509.665C499.145 19.0885 488.158 37.2844 476.836 55.9006C466.642 72.6639 457.366 89.6558 446.39 106.009C434.065 110.184 421.56 112.728 408.383 117.367C370.067 131.224 335.358 153.521 306.825 182.607L306.856 182.919C303.936 183.853 299.62 189.89 297.475 192.331C282.803 209.029 271.139 226.883 261.049 246.659C258.522 251.612 255.834 257.509 253.262 262.33C252.021 263.521 248.818 266.405 248.045 267.693L249.618 269.96L249.899 269.895C266.973 292.38 285.661 316.696 303.471 338.516L303.66 339.011L244.077 441.257C224.629 476.928 201.867 513.081 181.9 548.715C172.221 567.589 158.284 590.606 147.552 609.244C124.587 649.321 101.26 689.19 77.575 728.847L23.6321 820.714C16.2339 833.242 7.82246 848.566 0 860.589V0Z" fill="#0A4643"/>
<path d="M181.9 548.715C177.857 542.09 174.374 534.179 170.993 527.263C123.818 430.763 119.749 316.891 165.66 219.211C171.064 207.712 176.603 195.57 183.649 184.828C199.918 206.815 216.658 228.45 233.858 249.716C236.23 252.666 246.602 266.348 248.045 267.693L249.618 269.96L249.899 269.895C266.973 292.38 285.661 316.696 303.471 338.516L303.66 339.011L244.077 441.257C224.629 476.928 201.867 513.081 181.9 548.715Z" fill="#028A79"/>
<path d="M249.618 269.96L249.899 269.895C266.973 292.38 285.661 316.696 303.471 338.516L303.66 339.011L244.077 441.257C239.825 431.259 236.676 415.88 234.919 404.985C226.976 355.734 233.429 316.387 249.618 269.96Z" fill="#6DAAA8"/>
<path d="M450.584 0H509.665C499.145 19.0885 488.158 37.2844 476.836 55.9006C466.642 72.6639 457.366 89.6558 446.39 106.009C434.065 110.184 421.56 112.728 408.383 117.367C370.067 131.224 335.358 153.521 306.825 182.607L306.856 182.919C303.936 183.853 299.62 189.89 297.475 192.331C282.803 209.029 271.139 226.883 261.049 246.659C258.522 251.612 255.834 257.509 253.262 262.33C252.021 263.521 248.818 266.405 248.045 267.693C246.602 266.348 236.23 252.666 233.858 249.716C216.658 228.45 199.918 206.815 183.649 184.828C185.007 182.286 186.64 179.563 188.083 177.04C227.404 114.216 283.957 64.0222 351.004 32.4376C366.747 25.0745 382.57 20.0843 398.595 13.8136C415.583 7.16587 433.056 5.63231 449.834 0.244316L450.584 0Z" fill="#028A79"/>
<path d="M246.43 107.043C264.613 128.714 281.573 151.733 299.609 173.567C302.022 176.488 304.619 179.557 306.825 182.606L306.856 182.918C303.936 183.852 299.62 189.889 297.475 192.33C282.803 209.028 271.139 226.882 261.049 246.658C258.522 251.611 255.834 257.508 253.262 262.329C252.021 263.52 248.818 266.404 248.045 267.692C246.602 266.347 236.23 252.665 233.858 249.715C216.658 228.449 199.918 206.814 183.649 184.827C185.007 182.285 186.64 179.562 188.083 177.039C197.659 176.826 221.751 174.171 231.221 172.097C237.236 155.685 244.94 124.355 246.43 107.043Z" fill="url(#paint5_linear_1092_27885)"/>
</g>
<defs>
<linearGradient id="paint0_linear_1092_27885" x1="111.958" y1="1099.19" x2="531.015" y2="499.482" gradientUnits="userSpaceOnUse">
<stop stop-color="#F4BFD1"/>
<stop offset="1" stop-color="#F9E8EC"/>
</linearGradient>
<linearGradient id="paint1_linear_1092_27885" x1="814.484" y1="136.934" x2="749.254" y2="224.066" gradientUnits="userSpaceOnUse">
<stop stop-color="#469B92"/>
<stop offset="1" stop-color="#A4C8C8"/>
</linearGradient>
<linearGradient id="paint2_linear_1092_27885" x1="509.816" y1="1.50088" x2="511.897" y2="438.998" gradientUnits="userSpaceOnUse">
<stop stop-color="#FCD1DF"/>
<stop offset="1" stop-color="#F6E3E6"/>
</linearGradient>
<linearGradient id="paint3_linear_1092_27885" x1="747.885" y1="200.771" x2="659.462" y2="376.771" gradientUnits="userSpaceOnUse">
<stop stop-color="#F8C9D6"/>
<stop offset="1" stop-color="#FFF7F8"/>
</linearGradient>
<linearGradient id="paint4_linear_1092_27885" x1="267.37" y1="218.399" x2="342.004" y2="302.212" gradientUnits="userSpaceOnUse">
<stop stop-color="#F5C3D2"/>
<stop offset="1" stop-color="#FFEFF3"/>
</linearGradient>
<linearGradient id="paint5_linear_1092_27885" x1="208.674" y1="142.646" x2="286.996" y2="233.205" gradientUnits="userSpaceOnUse">
<stop stop-color="#44988F"/>
<stop offset="1" stop-color="#A8CAC9"/>
</linearGradient>
<clipPath id="clip0_1092_27885">
<rect width="1024" height="1024" rx="200" fill="white"/>
</clipPath>
</defs>
</svg>
